<?xml version="1.0" encoding="iso-8859-1"?>
<!-- Generator: Adobe Illustrator 19.0.0, SVG Export Plug-In . SVG Version: 6.00 Build 0)  -->
<svg version="1.1" id="Capa_1" xmlns="http://www.w3.org/2000/svg" xmlns:xlink="http://www.w3.org/1999/xlink" x="0px" y="0px"
	 viewBox="0 0 512 512" style="enable-background:new 0 0 512 512;" xml:space="preserve">
<g>
	<g>
		<path d="M502,307.918h-40c-3.194,0-6.032,1.503-7.863,3.835H420.13c5.22-18.695,7.871-38.081,7.871-57.671
			c0-57.162-22.26-110.901-62.679-151.321C324.901,62.342,271.161,40.082,214,40.082H10c-5.522,0-10,4.477-10,10
			c0,5.523,4.478,10,10,10h113.422c-22.289,10.423-42.827,24.763-60.743,42.679C22.26,143.181,0,196.922,0,254.082
			c0,57.161,22.26,110.901,62.679,151.321c39.334,39.334,91.285,61.463,146.725,62.623c0.345,0.036,0.695,0.056,1.05,0.056h243.683
			c1.831,2.332,4.669,3.835,7.863,3.835h40c5.522,0,10-4.477,10-10v-144C512,312.395,507.522,307.918,502,307.918z M452,448.083H214
			c-106.972,0-194-87.028-194-194s87.028-194,194-194s194,87.028,194,194c0,18.651-2.641,37.091-7.847,54.807
			c-0.281,0.955-0.407,1.918-0.403,2.864h-27.749c-5.522,0-10,4.477-10,10s4.478,10,10,10H452V448.083z M492,451.918h-20v-124h20
			V451.918z"/>
	</g>
</g>
<g>
	<g>
		<path d="M309.653,199.814c-0.118-0.249-0.238-0.497-0.378-0.739c-0.165-0.285-0.342-0.557-0.53-0.819
			c-19.162-32.397-54.455-54.174-94.745-54.174c-60.654,0-110,49.346-110,110s49.346,110,110,110
			c40.395,0,75.768-21.891,94.895-54.428c0.126-0.188,0.264-0.365,0.379-0.565c0.14-0.242,0.261-0.49,0.378-0.739
			C318.779,292.327,324,273.804,324,254.082S318.779,215.837,309.653,199.814z M224.001,164.641
			c25.541,2.836,47.89,16.402,62.426,36.079l-49.304,28.466c-3.705-3.443-8.172-6.074-13.122-7.601V164.641z M204,164.641v56.944
			c-4.95,1.526-9.417,4.158-13.122,7.601l-49.305-28.466C156.109,181.043,178.458,167.477,204,164.641z M131.548,290.139
			c-4.849-11.046-7.548-23.241-7.548-36.057c0-12.815,2.698-25.011,7.548-36.057l49.316,28.472
			c-0.559,2.441-0.864,4.977-0.864,7.585c0,2.608,0.305,5.144,0.864,7.585L131.548,290.139z M203.999,343.524
			c-25.541-2.837-47.89-16.403-62.426-36.079l49.304-28.466c3.705,3.443,8.172,6.074,13.122,7.601V343.524z M214,268.082
			c-7.72,0-14-6.28-14-14c0-7.72,6.28-14,14-14c7.72,0,14,6.28,14,14C228,261.802,221.72,268.082,214,268.082z M224,343.524V286.58
			c4.95-1.526,9.417-4.158,13.122-7.601l49.304,28.466C271.891,327.121,249.542,340.688,224,343.524z M296.452,290.139
			l-49.316-28.472c0.559-2.441,0.864-4.977,0.864-7.585s-0.305-5.144-0.864-7.585l49.316-28.472
			c4.85,11.046,7.548,23.242,7.548,36.057C304,266.898,301.302,279.093,296.452,290.139z"/>
	</g>
</g>
<g>
	<g>
		<path d="M187.14,405.694c-51.456-9.05-94.408-43.243-114.896-91.467c-2.161-5.083-8.031-7.453-13.114-5.293
			c-5.083,2.16-7.453,8.031-5.294,13.114c11.2,26.363,28.979,49.807,51.412,67.799c22.727,18.227,49.846,30.518,78.427,35.544
			c0.586,0.103,1.169,0.153,1.744,0.153c4.764,0,8.983-3.416,9.837-8.269C196.213,411.836,192.579,406.651,187.14,405.694z"/>
	</g>
</g>
<g>
	<g>
		<path d="M63.023,284.33l-0.171-0.868c-1.053-5.421-6.3-8.958-11.723-7.911c-5.422,1.053-8.963,6.301-7.91,11.723l0.185,0.941
			c0.943,4.762,5.122,8.059,9.799,8.059c0.644,0.001,1.298-0.062,1.953-0.192C60.574,295.009,64.096,289.747,63.023,284.33z"/>
	</g>
</g>
<g>
	<g>
		<path d="M344.069,314.682c-1.859-1.86-4.439-2.93-7.069-2.93s-5.21,1.07-7.07,2.93c-1.86,1.86-2.93,4.44-2.93,7.07
			s1.069,5.21,2.93,7.07c1.861,1.86,4.44,2.93,7.07,2.93s5.21-1.07,7.069-2.93c1.86-1.86,2.931-4.44,2.931-7.07
			S345.93,316.542,344.069,314.682z"/>
	</g>
</g>
<g>
</g>
<g>
</g>
<g>
</g>
<g>
</g>
<g>
</g>
<g>
</g>
<g>
</g>
<g>
</g>
<g>
</g>
<g>
</g>
<g>
</g>
<g>
</g>
<g>
</g>
<g>
</g>
<g>
</g>
</svg>
