<?xml version="1.0" encoding="iso-8859-1"?>
<!-- Generator: Adobe Illustrator 19.0.0, SVG Export Plug-In . SVG Version: 6.00 Build 0)  -->
<svg version="1.1" id="Capa_1" xmlns="http://www.w3.org/2000/svg" xmlns:xlink="http://www.w3.org/1999/xlink" x="0px" y="0px"
	 viewBox="0 0 512 512" style="enable-background:new 0 0 512 512;" xml:space="preserve">
<g>
	<g>
		<g>
			<path d="M59.733,405.333c-14.138,0-25.6,11.462-25.6,25.6s11.461,25.6,25.6,25.6s25.6-11.461,25.6-25.6
				C85.318,416.801,73.865,405.349,59.733,405.333z M59.733,439.467c-4.713,0-8.533-3.82-8.533-8.533s3.82-8.533,8.533-8.533
				s8.533,3.82,8.533,8.533C68.262,435.644,64.444,439.462,59.733,439.467z"/>
			<path d="M290.133,430.933c0,14.138,11.461,25.6,25.6,25.6s25.6-11.461,25.6-25.6s-11.462-25.6-25.6-25.6
				C301.601,405.349,290.149,416.801,290.133,430.933z M324.267,430.933c0,4.713-3.82,8.533-8.533,8.533s-8.533-3.82-8.533-8.533
				s3.82-8.533,8.533-8.533C320.444,422.405,324.262,426.222,324.267,430.933z"/>
			<path d="M119.467,226.133c2.263,0.001,4.434-0.898,6.035-2.499c1.6-1.6,2.499-3.771,2.499-6.035v-8.533
				c0-4.713-3.82-8.533-8.533-8.533s-8.533,3.82-8.533,8.533v8.533c-0.001,2.263,0.898,4.434,2.499,6.035
				C115.032,225.235,117.203,226.134,119.467,226.133z"/>
			<path d="M119.467,268.8c2.263,0.001,4.434-0.898,6.035-2.499c1.6-1.6,2.499-3.771,2.499-6.035v-8.533
				c0-4.713-3.82-8.533-8.533-8.533s-8.533,3.82-8.533,8.533v8.533c-0.001,2.263,0.898,4.434,2.499,6.035
				C115.032,267.902,117.203,268.801,119.467,268.8z"/>
			<path d="M506.726,158.524c-1.033-0.431-2.14-0.654-3.259-0.657h-126.55c-2.264,0-4.436,0.899-6.038,2.5l-73.275,73.358
				c-10.313-4.984-21.617-7.579-33.071-7.592v-32.325c0-0.404-0.096-0.792-0.124-1.192c0.016-0.215,0.124-0.398,0.124-0.617
				c-0.029-1.385-0.403-2.74-1.089-3.944c-0.141-0.391-0.215-0.8-0.386-1.181l-52.26-117.589l-0.069-0.155L197.783,40
				c-2.741-6.161-8.852-10.132-15.596-10.133H17.067C7.645,29.877,0.011,37.512,0,46.933v230.4
				c0.02,18.843,15.29,34.113,34.133,34.133h8.533v68.267C19.114,379.761,0.028,398.847,0,422.4v17.067
				c0.028,23.553,19.114,42.639,42.667,42.667H332.8c23.553-0.028,42.639-19.114,42.667-42.667V422.4
				c-0.028-20.265-14.283-37.724-34.133-41.804v-77.662c-0.013-11.454-2.607-22.758-7.591-33.071l60.874-60.796H460.8v142.556
				l-75.446,117.361c-1.69,2.626-1.81,5.965-0.314,8.706c1.496,2.741,4.37,4.445,7.493,4.444h76.8
				c23.553-0.028,42.639-19.114,42.667-42.667V166.4C511.987,162.952,509.909,159.848,506.726,158.524z M264.533,243.2
				c29.68,0.038,54.845,21.83,59.125,51.2h-59.125V243.2z M324.267,311.467v68.267H230.4v-68.267H324.267z M197.358,81.067
				l45.512,102.4h-97.804v-102.4H197.358z M17.067,81.067h76.8l0.012,102.4H17.067V81.067z M34.133,294.4
				c-9.421-0.011-17.056-7.646-17.067-17.067v-76.8h76.8c9.421-0.011,17.056-7.645,17.067-17.067v-102.4
				c-0.011-9.421-7.646-17.056-17.067-17.067h-76.8V46.933h165.121L189.773,64h-44.706c-9.421,0.011-17.056,7.645-17.067,17.067
				v102.4c0.011,9.421,7.645,17.056,17.067,17.067h102.401l0.004,34.108l-0.005,0.025V294.4H128c0-4.713-3.82-8.533-8.533-8.533
				s-8.533,3.821-8.533,8.533H34.133z M145.067,354.133v-17.067h68.267v17.067H145.067z M213.333,371.2v8.533h-68.267V371.2H213.333
				z M145.067,320v-8.533h68.267V320H145.067z M128,311.467v68.267H59.733v-68.267H128z M358.4,422.4v17.067
				c-0.015,14.132-11.468,25.585-25.6,25.6H42.667c-14.132-0.015-25.585-11.468-25.6-25.6V422.4
				c0.015-14.132,11.468-25.585,25.6-25.6H332.8C346.932,396.815,358.385,408.268,358.4,422.4z M324.452,255.016
				c-3.548-4.428-7.573-8.452-12-12.001l61.182-61.253l8.035,16.111L324.452,255.016z M397.814,192l-8.511-17.067h93.564L465.8,192
				H397.814z M494.933,439.467c-0.015,14.132-11.468,25.585-25.6,25.6h-61.171l65.829-102.4h20.942V439.467z M494.933,345.6h-17.067
				V204.067L494.933,187V345.6z"/>
			<path d="M42.667,123.733c2.264,0.003,4.435-0.897,6.033-2.5l8.533-8.533c3.281-3.341,3.256-8.701-0.054-12.012
				s-8.671-3.335-12.012-0.054l-8.533,8.533c-2.44,2.44-3.169,6.11-1.849,9.298C36.105,121.654,39.216,123.733,42.667,123.733z"/>
			<path d="M62.234,126.234l-25.6,25.6c-2.188,2.149-3.055,5.307-2.27,8.271c0.785,2.965,3.1,5.28,6.065,6.065
				c2.965,0.785,6.122-0.082,8.271-2.27l25.6-25.6c3.281-3.341,3.256-8.701-0.054-12.012S65.574,122.953,62.234,126.234z"/>
		</g>
	</g>
</g>
<g>
</g>
<g>
</g>
<g>
</g>
<g>
</g>
<g>
</g>
<g>
</g>
<g>
</g>
<g>
</g>
<g>
</g>
<g>
</g>
<g>
</g>
<g>
</g>
<g>
</g>
<g>
</g>
<g>
</g>
</svg>
